<?xml version="1.0" standalone="no"?>
<!DOCTYPE svg PUBLIC "-//W3C//DTD SVG 20010904//EN"
 "http://www.w3.org/TR/2001/REC-SVG-20010904/DTD/svg10.dtd">
<svg version="1.0" xmlns="http://www.w3.org/2000/svg"
 width="40.000000pt" height="40.000000pt" viewBox="0 0 200.000000 200.000000"
 preserveAspectRatio="xMidYMid meet">

<g transform="translate(0.000000,200.000000) scale(0.100000,-0.100000)"
fill="#A1AEB1" stroke="none">
<path d="M599 1807 c-141 -32 -226 -139 -244 -308 -7 -63 -8 -66 -41 -78 -50
-18 -121 -96 -144 -158 -54 -144 6 -299 144 -371 48 -25 61 -27 204 -30 l152
-4 0 51 0 51 -133 0 c-118 0 -138 3 -177 23 -70 35 -103 85 -108 161 -6 98 45
169 148 204 l55 19 0 84 c0 73 4 92 30 144 42 84 101 120 194 120 106 -1 187
-58 225 -159 8 -22 20 -54 25 -69 l11 -28 73 41 c51 27 86 40 113 40 56 0 108
-38 129 -95 18 -45 18 -45 66 -45 l49 0 -6 33 c-29 154 -180 243 -325 191 -41
-14 -45 -14 -54 2 -84 144 -234 214 -386 181z"/>
<path d="M1484 1371 c-41 -25 -57 -74 -52 -161 3 -55 8 -74 27 -94 l23 -24
-52 -69 -52 -68 -88 3 c-49 2 -96 -1 -107 -7 -17 -8 -26 -4 -53 24 l-34 35 3
103 c2 98 1 106 -22 133 -24 28 -30 29 -121 32 l-96 4 -35 -35 c-34 -34 -35
-37 -35 -116 0 -141 29 -167 181 -159 l94 5 32 -35 c26 -27 31 -38 23 -52 -6
-10 -10 -46 -10 -79 l0 -61 -61 -30 -61 -31 -25 25 c-40 40 -177 49 -232 14
-32 -20 -51 -70 -51 -137 0 -122 39 -161 160 -161 121 0 152 28 160 148 l5 73
58 26 57 26 26 -24 c18 -17 41 -25 81 -29 l55 -5 23 -55 23 -55 -28 -8 c-16
-4 -40 -21 -54 -38 -23 -27 -26 -39 -26 -109 0 -135 25 -160 165 -160 82 0 88
1 116 29 28 28 29 34 29 116 0 126 -28 165 -118 165 -36 0 -38 2 -59 57 -13
31 -22 57 -20 57 37 11 82 56 93 93 0 2 26 -7 57 -20 l57 -22 0 -43 c0 -37 6
-50 35 -79 l35 -35 96 4 c91 3 97 5 120 31 22 25 24 37 24 123 0 92 -1 97 -29
125 -28 28 -34 29 -115 29 -103 0 -130 -11 -153 -62 -20 -42 -26 -43 -95 -14
-35 15 -36 16 -41 83 l-4 68 57 75 57 75 84 5 c46 3 90 9 98 14 24 15 41 74
41 141 0 119 -38 155 -162 155 -54 0 -81 -5 -104 -19z m166 -141 l0 -60 -60 0
-60 0 0 60 0 60 60 0 60 0 0 -60z m-650 -105 l0 -55 -55 0 -55 0 0 55 0 55 55
0 55 0 0 -55z m330 -320 l0 -55 -60 0 -60 0 0 55 0 55 60 0 60 0 0 -55z m420
-110 l0 -55 -55 0 -55 0 0 55 0 55 55 0 55 0 0 -55z m-852 -107 l3 -58 -61 0
-60 0 0 53 c0 30 3 57 7 61 4 4 30 6 58 4 l50 -3 3 -57z m532 -213 l0 -55 -55
0 -55 0 0 55 0 55 55 0 55 0 0 -55z"/>
</g>
</svg>
