<!-- Copyright 2000-2024 JetBrains s.r.o. and contributors. Use of this source code is governed by the Apache 2.0 license. -->
<svg width="16" height="16" viewBox="0 0 16 16" fill="none" xmlns="http://www.w3.org/2000/svg">
<path d="M1.5 4.5H1C1 4.77614 1.22386 5 1.5 5V4.5ZM6 14H7.5V13H6V14ZM13 5.5V4.5H12V5.5H13ZM5 4.5V4H4V4.5H5ZM1 4V4.5H2V4H1ZM3 3H10.5V2H3V3ZM5 12V4.5H4V12H5ZM4.5 4H1.5V5H4.5V4ZM9 13H6V14H9V13ZM13 8V5.5H12V8H13ZM2 4C2 3.44772 2.44772 3 3 3V2C1.89543 2 1 2.89543 1 4H2ZM13 4.5C13 3.11929 11.8807 2 10.5 2V3C11.3284 3 12 3.67157 12 4.5H13ZM5 4C5 2.89543 4.10457 2 3 2V3C3.55228 3 4 3.44772 4 4H5ZM4 12C4 13.1046 4.89543 14 6 14V13C5.44772 13 5 12.5523 5 12H4Z" fill="#6C707E"/>
<path d="M14 11.5C14 11.7761 13.7761 12 13.5 12H12.5C12.2239 12 12 11.7761 12 11.5C12 11.2239 12.2239 11 12.5 11H13.5C13.7761 11 14 11.2239 14 11.5Z" fill="#3574F0"/>
<path d="M13.5 14C13.7761 14 14 13.7761 14 13.5C14 13.2239 13.7761 13 13.5 13H12.5C12.2239 13 12 13.2239 12 13.5C12 13.7761 12.2239 14 12.5 14H13.5Z" fill="#3574F0"/>
<path fill-rule="evenodd" clip-rule="evenodd" d="M10 9.5C10 9.22386 10.2239 9 10.5 9H15.5C15.7761 9 16 9.22386 16 9.5V15.5C16 15.7761 15.7761 16 15.5 16H10.5C10.2239 16 10 15.7761 10 15.5V9.5ZM11 10V15H15V10H11Z" fill="#3574F0"/>
</svg>
