<svg width="16" height="16" viewBox="0 0 16 16" fill="none" xmlns="http://www.w3.org/2000/svg">
<path fill-rule="evenodd" clip-rule="evenodd" d="M8 4C8 1.79086 6.20914 0 4 0C1.79086 0 0 1.79086 0 4C0 6.20914 1.79086 8 4 8C6.20914 8 8 6.20914 8 4ZM2.26354 4.5C2.3098 5.34792 2.47216 6.11341 2.71313 6.71075C1.84445 6.29763 1.20577 5.47924 1.04148 4.5H2.26354ZM3.2652 4.5C3.3134 5.285 3.47198 5.95505 3.67872 6.42761C3.7975 6.69911 3.91458 6.86517 4 6.95287C4.08542 6.86517 4.2025 6.69911 4.32128 6.42761C4.52802 5.95505 4.6866 5.285 4.7348 4.5H3.2652ZM4.7348 3.5H3.2652C3.3134 2.715 3.47198 2.04495 3.67872 1.57239C3.7975 1.30089 3.91458 1.13483 4 1.04713C4.08542 1.13483 4.2025 1.30089 4.32128 1.57239C4.52802 2.04495 4.6866 2.715 4.7348 3.5ZM5.73646 4.5C5.6902 5.34792 5.52784 6.11341 5.28687 6.71075C6.15555 6.29763 6.79423 5.47924 6.95852 4.5H5.73646ZM6.95852 3.5H5.73646C5.6902 2.65208 5.52784 1.88659 5.28687 1.28925C6.15555 1.70237 6.79423 2.52076 6.95852 3.5ZM2.26354 3.5H1.04148C1.20577 2.52076 1.84445 1.70237 2.71313 1.28925C2.47216 1.88659 2.3098 2.65208 2.26354 3.5Z" fill="#6C707E"/>
<path d="M2.71266 6.71074C2.4717 6.1134 2.30933 5.3479 2.26308 4.49999H1.04102C1.2053 5.47923 1.84398 6.29762 2.71266 6.71074Z" fill="#EBECF0"/>
<path d="M3.67826 6.4276C3.47151 5.95504 3.31294 5.28499 3.26473 4.49999H4.73434C4.68613 5.28499 4.52756 5.95504 4.32082 6.4276C4.20203 6.6991 4.08496 6.86516 3.99954 6.95286C3.91411 6.86516 3.79704 6.6991 3.67826 6.4276Z" fill="#EBECF0"/>
<path d="M3.67826 1.57238C3.47151 2.04494 3.31294 2.71499 3.26473 3.49999H4.73434C4.68613 2.71499 4.52756 2.04494 4.32082 1.57238C4.20203 1.30087 4.08496 1.13482 3.99954 1.04712C3.91411 1.13482 3.79704 1.30087 3.67826 1.57238Z" fill="#EBECF0"/>
<path d="M5.28641 6.71074C5.52737 6.1134 5.68974 5.3479 5.736 4.49999H6.95806C6.79377 5.47923 6.15509 6.29762 5.28641 6.71074Z" fill="#EBECF0"/>
<path d="M5.736 3.49999H6.95806C6.79377 2.52074 6.15509 1.70236 5.28641 1.28924C5.52737 1.88657 5.68974 2.65207 5.736 3.49999Z" fill="#EBECF0"/>
<path d="M1.04102 3.49999H2.26308C2.30933 2.65207 2.4717 1.88657 2.71266 1.28924C1.84398 1.70236 1.2053 2.52074 1.04102 3.49999Z" fill="#EBECF0"/>
</svg>
